<?xml version="1.0"?>
<!-- Generated by SVGo -->
<svg width="460" height="460"
     xmlns="http://www.w3.org/2000/svg"
     xmlns:xlink="http://www.w3.org/1999/xlink">
<line x1="162" y1="261" x2="162" y2="304" style="stroke-width:2; fill:black; stroke: black;" />
<line x1="162" y1="261" x2="132" y2="291" style="stroke-width:2; fill:black; stroke: black;" />
<line x1="72" y1="261" x2="30" y2="261" style="stroke-width:2; fill:black; stroke: black;" />
<line x1="99" y1="198" x2="68" y2="167" style="stroke-width:2; fill:black; stroke: black;" />
<line x1="121" y1="244" x2="79" y2="227" style="stroke-width:2; fill:black; stroke: black;" />
<line x1="162" y1="72" x2="162" y2="30" style="stroke-width:2; fill:black; stroke: black;" />
<line x1="295" y1="128" x2="326" y2="97" style="stroke-width:2; fill:black; stroke: black;" />
<line x1="217" y1="128" x2="234" y2="87" style="stroke-width:2; fill:black; stroke: black;" />
<line x1="350" y1="261" x2="393" y2="261" style="stroke-width:2; fill:black; stroke: black;" />
<line x1="295" y1="394" x2="326" y2="424" style="stroke-width:2; fill:black; stroke: black;" />
<line x1="295" y1="316" x2="336" y2="333" style="stroke-width:2; fill:black; stroke: black;" />
<line x1="203" y1="244" x2="295" y2="206" style="stroke-width:2; fill:black; stroke: black;" />
<line x1="162" y1="261" x2="162" y2="216" style="stroke-width:2; fill:black; stroke: black;" />
<line x1="162" y1="261" x2="162" y2="261" style="stroke-width:2; fill:black; stroke: black;" />
<path d="M73,261 A90,90 0 0 1 99,198" style="stroke-width:2; fill:none;stroke: black;" />
<path d="M163,73 A188,188 0 0 1 296,128" style="stroke-width:2; fill:none;stroke: black;" />
<path d="M351,261 A188,188 0 0 1 296,395" style="stroke-width:2; fill:none;stroke: black;" />
<path d="M218,129 A144,144 0 0 1 295,316" style="stroke-width:2; fill:none;stroke: black;" />
<path d="M121,244 A45,45 0 0 1 204,244" style="stroke-width:2; fill:none;stroke: black;" />
<path d="M163,261 A0,0 0 1 1 163,261" style="stroke-width:2; fill:none;stroke: black;" />
<g transform="translate(162,304)">
<g transform="rotate(90)">
<text x="1" y="0" style="font-family: sans-serif;font-size:8px;" >a</text>
</g>
</g>
<g transform="translate(132,291)">
<g transform="rotate(-45)">
<text x="-5" y="0" style="font-family: sans-serif;font-size:8px;" >b</text>
</g>
</g>
<g transform="translate(30,261)">
<g transform="rotate(0)">
<text x="-5" y="0" style="font-family: sans-serif;font-size:8px;" >c</text>
</g>
</g>
<g transform="translate(68,167)">
<g transform="rotate(45)">
<text x="-5" y="0" style="font-family: sans-serif;font-size:8px;" >d</text>
</g>
</g>
<g transform="translate(162,30)">
<g transform="rotate(270)">
<text x="1" y="0" style="font-family: sans-serif;font-size:8px;" >f</text>
</g>
</g>
<g transform="translate(326,97)">
<g transform="rotate(315)">
<text x="1" y="0" style="font-family: sans-serif;font-size:8px;" >e</text>
</g>
</g>
<g transform="translate(393,261)">
<g transform="rotate(360)">
<text x="1" y="0" style="font-family: sans-serif;font-size:8px;" >g</text>
</g>
</g>
<g transform="translate(326,424)">
<g transform="rotate(404.99999999999994)">
<text x="1" y="0" style="font-family: sans-serif;font-size:8px;" >h</text>
</g>
</g>
<circle cx="100" cy="236" r="5" style="stroke-width:1; fill:orange;stroke: black;" />
<circle cx="226" cy="108" r="5" style="stroke-width:1; fill:orange;stroke: black;" />
<circle cx="316" cy="325" r="5" style="stroke-width:1; fill:orange;stroke: black;" />
<circle cx="250" cy="225" r="5" style="stroke-width:1; fill:orange;stroke: black;" />
<circle cx="163" cy="239" r="5" style="stroke-width:1; fill:orange;stroke: black;" />
</svg>
