<?xml version="1.0"?>
<!-- Generated by SVGo -->
<svg width="460" height="460"
     xmlns="http://www.w3.org/2000/svg"
     xmlns:xlink="http://www.w3.org/1999/xlink">
<line x1="227" y1="301" x2="227" y2="425" style="stroke-width:2; fill:black; stroke: black;" />
<line x1="175" y1="279" x2="87" y2="367" style="stroke-width:2; fill:black; stroke: black;" />
<line x1="216" y1="253" x2="199" y2="295" style="stroke-width:2; fill:black; stroke: black;" />
<line x1="153" y1="227" x2="30" y2="227" style="stroke-width:2; fill:black; stroke: black;" />
<line x1="175" y1="175" x2="87" y2="87" style="stroke-width:2; fill:black; stroke: black;" />
<line x1="201" y1="216" x2="159" y2="199" style="stroke-width:2; fill:black; stroke: black;" />
<line x1="227" y1="227" x2="201" y2="238" style="stroke-width:2; fill:black; stroke: black;" />
<line x1="227" y1="153" x2="227" y2="30" style="stroke-width:2; fill:black; stroke: black;" />
<line x1="279" y1="175" x2="367" y2="87" style="stroke-width:2; fill:black; stroke: black;" />
<line x1="238" y1="201" x2="255" y2="159" style="stroke-width:2; fill:black; stroke: black;" />
<line x1="301" y1="227" x2="425" y2="227" style="stroke-width:2; fill:black; stroke: black;" />
<line x1="279" y1="279" x2="367" y2="367" style="stroke-width:2; fill:black; stroke: black;" />
<line x1="253" y1="238" x2="295" y2="255" style="stroke-width:2; fill:black; stroke: black;" />
<line x1="227" y1="227" x2="253" y2="216" style="stroke-width:2; fill:black; stroke: black;" />
<line x1="227" y1="227" x2="227" y2="227" style="stroke-width:2; fill:black; stroke: black;" />
<path d="M228,301 A74,74 0 0 1 175,280" style="stroke-width:2; fill:none;stroke: black;" />
<path d="M154,228 A74,74 0 0 1 175,175" style="stroke-width:2; fill:none;stroke: black;" />
<path d="M217,254 A28,28 0 0 1 201,217" style="stroke-width:2; fill:none;stroke: black;" />
<path d="M228,154 A74,74 0 0 1 280,175" style="stroke-width:2; fill:none;stroke: black;" />
<path d="M301,227 A74,74 0 0 1 280,280" style="stroke-width:2; fill:none;stroke: black;" />
<path d="M238,201 A28,28 0 0 1 254,238" style="stroke-width:2; fill:none;stroke: black;" />
<path d="M228,228 A0,0 0 1 1 228,228" style="stroke-width:2; fill:none;stroke: black;" />
<g transform="translate(227,425)">
<g transform="rotate(90)">
<text x="1" y="0" style="font-family: sans-serif;font-size:8px;" >a</text>
</g>
</g>
<g transform="translate(87,367)">
<g transform="rotate(-45)">
<text x="-5" y="0" style="font-family: sans-serif;font-size:8px;" >b</text>
</g>
</g>
<g transform="translate(30,227)">
<g transform="rotate(0)">
<text x="-5" y="0" style="font-family: sans-serif;font-size:8px;" >c</text>
</g>
</g>
<g transform="translate(87,87)">
<g transform="rotate(45)">
<text x="-5" y="0" style="font-family: sans-serif;font-size:8px;" >d</text>
</g>
</g>
<g transform="translate(227,30)">
<g transform="rotate(270)">
<text x="1" y="0" style="font-family: sans-serif;font-size:8px;" >e</text>
</g>
</g>
<g transform="translate(367,87)">
<g transform="rotate(315)">
<text x="1" y="0" style="font-family: sans-serif;font-size:8px;" >f</text>
</g>
</g>
<g transform="translate(425,227)">
<g transform="rotate(360)">
<text x="1" y="0" style="font-family: sans-serif;font-size:8px;" >h</text>
</g>
</g>
<g transform="translate(367,367)">
<g transform="rotate(404.99999999999994)">
<text x="1" y="0" style="font-family: sans-serif;font-size:8px;" >g</text>
</g>
</g>
<circle cx="208" cy="275" r="5" style="stroke-width:1; fill:orange;stroke: black;" />
<circle cx="180" cy="208" r="5" style="stroke-width:1; fill:orange;stroke: black;" />
<circle cx="214" cy="233" r="5" style="stroke-width:1; fill:orange;stroke: black;" />
<circle cx="247" cy="180" r="5" style="stroke-width:1; fill:orange;stroke: black;" />
<circle cx="275" cy="247" r="5" style="stroke-width:1; fill:orange;stroke: black;" />
<circle cx="241" cy="222" r="5" style="stroke-width:1; fill:orange;stroke: black;" />
</svg>
