<?xml version="1.0"?>
<!-- Generated by SVGo -->
<svg width="460" height="460"
     xmlns="http://www.w3.org/2000/svg"
     xmlns:xlink="http://www.w3.org/1999/xlink">
<line x1="196" y1="215" x2="196" y2="416" style="stroke-width:2; fill:black; stroke: black;" />
<line x1="133" y1="279" x2="82" y2="329" style="stroke-width:2; fill:black; stroke: black;" />
<line x1="106" y1="215" x2="30" y2="215" style="stroke-width:2; fill:black; stroke: black;" />
<line x1="196" y1="215" x2="113" y2="249" style="stroke-width:2; fill:black; stroke: black;" />
<line x1="126" y1="145" x2="71" y2="90" style="stroke-width:2; fill:black; stroke: black;" />
<line x1="196" y1="115" x2="196" y2="30" style="stroke-width:2; fill:black; stroke: black;" />
<line x1="196" y1="215" x2="158" y2="123" style="stroke-width:2; fill:black; stroke: black;" />
<line x1="235" y1="176" x2="338" y2="73" style="stroke-width:2; fill:black; stroke: black;" />
<line x1="346" y1="215" x2="425" y2="215" style="stroke-width:2; fill:black; stroke: black;" />
<line x1="302" y1="321" x2="358" y2="377" style="stroke-width:2; fill:black; stroke: black;" />
<line x1="247" y1="236" x2="334" y2="272" style="stroke-width:2; fill:black; stroke: black;" />
<line x1="196" y1="215" x2="250" y2="204" style="stroke-width:2; fill:black; stroke: black;" />
<line x1="196" y1="215" x2="196" y2="215" style="stroke-width:2; fill:black; stroke: black;" />
<path d="M133,279 A90,90 0 0 1 107,215" style="stroke-width:2; fill:none;stroke: black;" />
<path d="M126,145 A100,100 0 0 1 197,116" style="stroke-width:2; fill:none;stroke: black;" />
<path d="M346,215 A150,150 0 0 1 303,321" style="stroke-width:2; fill:none;stroke: black;" />
<path d="M236,177 A55,55 0 0 1 247,236" style="stroke-width:2; fill:none;stroke: black;" />
<path d="M197,215 A0,0 0 1 1 197,215" style="stroke-width:2; fill:none;stroke: black;" />
<g transform="translate(196,416)">
<g transform="rotate(90)">
<text x="1" y="0" style="font-family: sans-serif;font-size:8px;" >a</text>
</g>
</g>
<g transform="translate(82,329)">
<g transform="rotate(-45)">
<text x="-5" y="0" style="font-family: sans-serif;font-size:8px;" >e</text>
</g>
</g>
<g transform="translate(30,215)">
<g transform="rotate(0)">
<text x="-5" y="0" style="font-family: sans-serif;font-size:8px;" >f</text>
</g>
</g>
<g transform="translate(71,90)">
<g transform="rotate(45)">
<text x="-5" y="0" style="font-family: sans-serif;font-size:8px;" >g</text>
</g>
</g>
<g transform="translate(196,30)">
<g transform="rotate(270)">
<text x="1" y="0" style="font-family: sans-serif;font-size:8px;" >h</text>
</g>
</g>
<g transform="translate(338,73)">
<g transform="rotate(315)">
<text x="1" y="0" style="font-family: sans-serif;font-size:8px;" >b</text>
</g>
</g>
<g transform="translate(425,215)">
<g transform="rotate(360)">
<text x="1" y="0" style="font-family: sans-serif;font-size:8px;" >c</text>
</g>
</g>
<g transform="translate(358,377)">
<g transform="rotate(404.99999999999994)">
<text x="1" y="0" style="font-family: sans-serif;font-size:8px;" >d</text>
</g>
</g>
</svg>
