<?xml version="1.0" encoding="UTF-8"?>
<!DOCTYPE svg PUBLIC "-//W3C//DTD SVG 1.1//EN"
 "http://www.w3.org/Graphics/SVG/1.1/DTD/svg11.dtd">
<svg xmlns="http://www.w3.org/2000/svg" version="1.1"
     width="180mm" height="25mm"
     viewBox="0 0 69 1" preserveAspectRatio="none"
     shape-rendering="crispEdges" stroke="none">
<rect width="1" height=".96" x="0" y="0" fill="#1F77B4" />
<rect width="1" height=".96" x="1" y="0" fill="#1F77B4" />
<rect width="1" height=".96" x="2" y="0" fill="#FFAA5A" />
<rect width="1" height=".96" x="3" y="0" fill="#FFAA5A" />
<rect width="1" height=".96" x="4" y="0" fill="#FFAA5A" />
<rect width="1" height=".96" x="5" y="0" fill="#FFAA5A" />
<rect width="1" height=".96" x="6" y="0" fill="#FFAA5A" />
<rect width="1" height=".96" x="7" y="0" fill="#FFAA5A" />
<rect width="1" height=".96" x="8" y="0" fill="#B39060" />
<rect width="1" height=".96" x="9" y="0" fill="#B39060" />
<rect width="1" height=".96" x="10" y="0" fill="#B39060" />
<rect width="1" height=".96" x="11" y="0" fill="#B39060" />
<rect width="1" height=".96" x="12" y="0" fill="#34A533" />
<rect width="1" height=".96" x="13" y="0" fill="#34A533" />
<rect width="1" height=".96" x="14" y="0" fill="#B39060" />
<rect width="1" height=".96" x="15" y="0" fill="#9B71C0" />
<rect width="1" height=".96" x="16" y="0" fill="#BC928A" />
<rect width="1" height=".96" x="17" y="0" fill="#BC928A" />
<rect width="1" height=".96" x="18" y="0" fill="#BC928A" />
<rect width="1" height=".96" x="19" y="0" fill="#1F77B4" />
<rect width="1" height=".96" x="20" y="0" fill="#1F77B4" />
<rect width="1" height=".96" x="21" y="0" fill="#1F77B4" />
<rect width="1" height=".96" x="22" y="0" fill="#1F77B4" />
<rect width="1" height=".96" x="23" y="0" fill="#1F77B4" />
<rect width="1" height=".96" x="24" y="0" fill="#1F77B4" />
<rect width="1" height=".96" x="25" y="0" fill="#1F77B4" />
<rect width="1" height=".96" x="26" y="0" fill="#1F77B4" />
<rect width="1" height=".96" x="27" y="0" fill="#1F77B4" />
<rect width="1" height=".96" x="28" y="0" fill="#1F77B4" />
<rect width="1" height=".96" x="29" y="0" fill="#1F77B4" />
<rect width="1" height=".96" x="30" y="0" fill="#1F77B4" />
<rect width="1" height=".96" x="31" y="0" fill="#1F77B4" />
<rect width="1" height=".96" x="32" y="0" fill="#1F77B4" />
<rect width="1" height=".96" x="33" y="0" fill="#1F77B4" />
<rect width="1" height=".96" x="34" y="0" fill="#1F77B4" />
<rect width="1" height=".96" x="35" y="0" fill="#1F77B4" />
<rect width="1" height=".96" x="36" y="0" fill="#CBAD9A" />
<rect width="1" height=".96" x="37" y="0" fill="#CBAD9A" />
<rect width="1" height=".96" x="38" y="0" fill="#1F77B4" />
<rect width="1" height=".96" x="39" y="0" fill="#1F77B4" />
<rect width="1" height=".96" x="40" y="0" fill="#1F77B4" />
<rect width="1" height=".96" x="41" y="0" fill="#1F77B4" />
<rect width="1" height=".96" x="42" y="0" fill="#F6807E" />
<rect width="1" height=".96" x="43" y="0" fill="#F6807E" />
<rect width="1" height=".96" x="44" y="0" fill="#F6807E" />
<rect width="1" height=".96" x="45" y="0" fill="#F6807E" />
<rect width="1" height=".96" x="46" y="0" fill="#F6807E" />
<rect width="1" height=".96" x="47" y="0" fill="#F6807E" />
<rect width="1" height=".96" x="48" y="0" fill="#F6807E" />
<rect width="1" height=".96" x="49" y="0" fill="#F6807E" />
<rect width="1" height=".96" x="50" y="0" fill="#F6807E" />
<rect width="1" height=".96" x="51" y="0" fill="#F6807E" />
<rect width="1" height=".96" x="52" y="0" fill="#F6807E" />
<rect width="1" height=".96" x="53" y="0" fill="#F6807E" />
<rect width="1" height=".96" x="54" y="0" fill="#F6807E" />
<rect width="1" height=".96" x="55" y="0" fill="#F6807E" />
<rect width="1" height=".96" x="56" y="0" fill="#A88390" />
<rect width="1" height=".96" x="57" y="0" fill="#A88390" />
<rect width="1" height=".96" x="58" y="0" fill="#A88390" />
<rect width="1" height=".96" x="59" y="0" fill="#A88390" />
<rect width="1" height=".96" x="60" y="0" fill="#A88390" />
<rect width="1" height=".96" x="61" y="0" fill="#A88390" />
<rect width="1" height=".96" x="62" y="0" fill="#A88390" />
<rect width="1" height=".96" x="63" y="0" fill="#A88390" />
<rect width="1" height=".96" x="64" y="0" fill="#A88390" />
<rect width="1" height=".96" x="65" y="0" fill="#A88390" />
<rect width="1" height=".96" x="66" y="0" fill="#CBAD9A" />
<rect width="1" height=".96" x="67" y="0" fill="#CBAD9A" />
<rect width="1" height=".96" x="68" y="0" fill="#CBAD9A" />
</svg>