<?xml version="1.0"?>
<!-- Generated by SVGo -->
<svg width="460" height="460"
     xmlns="http://www.w3.org/2000/svg"
     xmlns:xlink="http://www.w3.org/1999/xlink">
<line x1="43" y1="224" x2="43" y2="228" style="stroke-width:2; fill:black; stroke: black;" />
<line x1="43" y1="224" x2="41" y2="228" style="stroke-width:2; fill:black; stroke: black;" />
<line x1="43" y1="224" x2="40" y2="227" style="stroke-width:2; fill:black; stroke: black;" />
<line x1="35" y1="229" x2="31" y2="231" style="stroke-width:2; fill:black; stroke: black;" />
<line x1="34" y1="226" x2="30" y2="226" style="stroke-width:2; fill:black; stroke: black;" />
<line x1="34" y1="222" x2="30" y2="222" style="stroke-width:2; fill:black; stroke: black;" />
<line x1="34" y1="224" x2="34" y2="224" style="stroke-width:2; fill:black; stroke: black;" />
<line x1="39" y1="225" x2="34" y2="226" style="stroke-width:2; fill:black; stroke: black;" />
<line x1="35" y1="219" x2="31" y2="217" style="stroke-width:2; fill:black; stroke: black;" />
<line x1="37" y1="217" x2="34" y2="213" style="stroke-width:2; fill:black; stroke: black;" />
<line x1="36" y1="218" x2="36" y2="218" style="stroke-width:2; fill:black; stroke: black;" />
<line x1="39" y1="214" x2="38" y2="211" style="stroke-width:2; fill:black; stroke: black;" />
<line x1="43" y1="35" x2="43" y2="30" style="stroke-width:2; fill:black; stroke: black;" />
<line x1="108" y1="46" x2="109" y2="41" style="stroke-width:2; fill:black; stroke: black;" />
<line x1="168" y1="75" x2="168" y2="75" style="stroke-width:2; fill:black; stroke: black;" />
<line x1="219" y1="122" x2="219" y2="122" style="stroke-width:2; fill:black; stroke: black;" />
<line x1="248" y1="188" x2="253" y2="187" style="stroke-width:2; fill:black; stroke: black;" />
<line x1="248" y1="260" x2="253" y2="261" style="stroke-width:2; fill:black; stroke: black;" />
<line x1="246" y1="224" x2="251" y2="224" style="stroke-width:2; fill:black; stroke: black;" />
<line x1="235" y1="172" x2="239" y2="171" style="stroke-width:2; fill:black; stroke: black;" />
<line x1="219" y1="326" x2="219" y2="326" style="stroke-width:2; fill:black; stroke: black;" />
<line x1="177" y1="383" x2="180" y2="387" style="stroke-width:2; fill:black; stroke: black;" />
<line x1="114" y1="420" x2="116" y2="425" style="stroke-width:2; fill:black; stroke: black;" />
<line x1="144" y1="400" x2="147" y2="404" style="stroke-width:2; fill:black; stroke: black;" />
<line x1="183" y1="365" x2="187" y2="368" style="stroke-width:2; fill:black; stroke: black;" />
<line x1="231" y1="274" x2="235" y2="275" style="stroke-width:2; fill:black; stroke: black;" />
<line x1="223" y1="167" x2="228" y2="165" style="stroke-width:2; fill:black; stroke: black;" />
<line x1="180" y1="93" x2="180" y2="93" style="stroke-width:2; fill:black; stroke: black;" />
<line x1="47" y1="215" x2="117" y2="50" style="stroke-width:2; fill:black; stroke: black;" />
<line x1="43" y1="215" x2="43" y2="214" style="stroke-width:2; fill:black; stroke: black;" />
<line x1="41" y1="220" x2="39" y2="216" style="stroke-width:2; fill:black; stroke: black;" />
<line x1="43" y1="224" x2="39" y2="222" style="stroke-width:2; fill:black; stroke: black;" />
<line x1="43" y1="224" x2="43" y2="224" style="stroke-width:2; fill:black; stroke: black;" />
<line x1="43" y1="224" x2="43" y2="224" style="stroke-width:2; fill:black; stroke: black;" />
<path d="M34,226 A9,9 0 0 1 34,223" style="stroke-width:2; fill:none;stroke: black;" />
<path d="M36,229 A9,9 0 0 1 34,224" style="stroke-width:2; fill:none;stroke: black;" />
<path d="M35,220 A9,9 0 0 1 38,217" style="stroke-width:2; fill:none;stroke: black;" />
<path d="M249,188 A208,208 0 0 1 249,261" style="stroke-width:2; fill:none;stroke: black;" />
<path d="M219,123 A203,203 0 0 1 247,224" style="stroke-width:2; fill:none;stroke: black;" />
<path d="M177,384 A208,208 0 0 1 115,420" style="stroke-width:2; fill:none;stroke: black;" />
<path d="M219,326 A203,203 0 0 1 145,400" style="stroke-width:2; fill:none;stroke: black;" />
<path d="M235,173 A199,199 0 0 1 184,365" style="stroke-width:2; fill:none;stroke: black;" />
<path d="M168,75 A194,194 0 0 1 231,275" style="stroke-width:2; fill:none;stroke: black;" />
<path d="M108,47 A189,189 0 0 1 224,168" style="stroke-width:2; fill:none;stroke: black;" />
<path d="M43,35 A189,189 0 0 1 180,94" style="stroke-width:2; fill:none;stroke: black;" />
<path d="M40,215 A10,10 0 0 1 47,215" style="stroke-width:2; fill:none;stroke: black;" />
<path d="M36,219 A9,9 0 0 1 44,215" style="stroke-width:2; fill:none;stroke: black;" />
<path d="M39,226 A5,5 0 0 1 42,220" style="stroke-width:2; fill:none;stroke: black;" />
<path d="M43,224 A0,0 0 0 1 43,224" style="stroke-width:2; fill:none;stroke: black;" />
<path d="M43,224 A0,0 0 0 1 43,224" style="stroke-width:2; fill:none;stroke: black;" />
<g transform="translate(43,228)">
<g transform="rotate(90)">
<text x="1" y="0" style="font-family: sans-serif;font-size:8px;" >r</text>
</g>
</g>
<g transform="translate(41,228)">
<g transform="rotate(-70)">
<text x="-5" y="0" style="font-family: sans-serif;font-size:8px;" >p</text>
</g>
</g>
<g transform="translate(40,227)">
<g transform="rotate(-50)">
<text x="-5" y="0" style="font-family: sans-serif;font-size:8px;" >q</text>
</g>
</g>
<g transform="translate(31,231)">
<g transform="rotate(-30.00000000000003)">
<text x="-5" y="0" style="font-family: sans-serif;font-size:8px;" >o</text>
</g>
</g>
<g transform="translate(30,226)">
<g transform="rotate(-10)">
<text x="-5" y="0" style="font-family: sans-serif;font-size:8px;" >m</text>
</g>
</g>
<g transform="translate(30,222)">
<g transform="rotate(10)">
<text x="-5" y="0" style="font-family: sans-serif;font-size:8px;" >n</text>
</g>
</g>
<g transform="translate(31,217)">
<g transform="rotate(29.99999999999997)">
<text x="-5" y="0" style="font-family: sans-serif;font-size:8px;" >k</text>
</g>
</g>
<g transform="translate(34,213)">
<g transform="rotate(49.99999999999997)">
<text x="-5" y="0" style="font-family: sans-serif;font-size:8px;" >l</text>
</g>
</g>
<g transform="translate(38,211)">
<g transform="rotate(70.00000000000003)">
<text x="-5" y="0" style="font-family: sans-serif;font-size:8px;" >j</text>
</g>
</g>
<g transform="translate(43,30)">
<g transform="rotate(270)">
<text x="1" y="0" style="font-family: sans-serif;font-size:8px;" >g</text>
</g>
</g>
<g transform="translate(109,41)">
<g transform="rotate(290)">
<text x="1" y="0" style="font-family: sans-serif;font-size:8px;" >i</text>
</g>
</g>
<g transform="translate(168,75)">
<g transform="rotate(309.99999999999994)">
<text x="1" y="0" style="font-family: sans-serif;font-size:8px;" >h</text>
</g>
</g>
<g transform="translate(219,122)">
<g transform="rotate(329.99999999999994)">
<text x="1" y="0" style="font-family: sans-serif;font-size:8px;" >e</text>
</g>
</g>
<g transform="translate(253,187)">
<g transform="rotate(350.00000000000006)">
<text x="1" y="0" style="font-family: sans-serif;font-size:8px;" >d</text>
</g>
</g>
<g transform="translate(253,261)">
<g transform="rotate(370)">
<text x="1" y="0" style="font-family: sans-serif;font-size:8px;" >f</text>
</g>
</g>
<g transform="translate(219,326)">
<g transform="rotate(390)">
<text x="1" y="0" style="font-family: sans-serif;font-size:8px;" >b</text>
</g>
</g>
<g transform="translate(180,387)">
<g transform="rotate(410)">
<text x="1" y="0" style="font-family: sans-serif;font-size:8px;" >c</text>
</g>
</g>
<g transform="translate(116,425)">
<g transform="rotate(430)">
<text x="1" y="0" style="font-family: sans-serif;font-size:8px;" >a</text>
</g>
</g>
<circle cx="37" cy="226" r="5" style="stroke-width:1; fill:orange;stroke: black;" />
<circle cx="249" cy="224" r="5" style="stroke-width:1; fill:orange;stroke: black;" />
<circle cx="238" cy="172" r="5" style="stroke-width:1; fill:orange;stroke: black;" />
<circle cx="146" cy="403" r="5" style="stroke-width:1; fill:orange;stroke: black;" />
<circle cx="186" cy="367" r="5" style="stroke-width:1; fill:orange;stroke: black;" />
<circle cx="233" cy="275" r="5" style="stroke-width:1; fill:orange;stroke: black;" />
<circle cx="226" cy="167" r="5" style="stroke-width:1; fill:orange;stroke: black;" />
<circle cx="83" cy="133" r="5" style="stroke-width:1; fill:orange;stroke: black;" />
<circle cx="41" cy="218" r="5" style="stroke-width:1; fill:orange;stroke: black;" />
<circle cx="41" cy="223" r="5" style="stroke-width:1; fill:orange;stroke: black;" />
</svg>
