<?xml version="1.0"?>
<!-- Generated by SVGo -->
<svg width="460" height="460"
     xmlns="http://www.w3.org/2000/svg"
     xmlns:xlink="http://www.w3.org/1999/xlink">
<line x1="261" y1="333" x2="261" y2="356" style="stroke-width:2; fill:black; stroke: black;" />
<line x1="210" y1="312" x2="194" y2="328" style="stroke-width:2; fill:black; stroke: black;" />
<line x1="247" y1="294" x2="233" y2="328" style="stroke-width:2; fill:black; stroke: black;" />
<line x1="52" y1="261" x2="30" y2="261" style="stroke-width:2; fill:black; stroke: black;" />
<line x1="113" y1="113" x2="97" y2="97" style="stroke-width:2; fill:black; stroke: black;" />
<line x1="101" y1="195" x2="68" y2="181" style="stroke-width:2; fill:black; stroke: black;" />
<line x1="261" y1="52" x2="261" y2="30" style="stroke-width:2; fill:black; stroke: black;" />
<line x1="409" y1="113" x2="425" y2="97" style="stroke-width:2; fill:black; stroke: black;" />
<line x1="327" y1="101" x2="341" y2="68" style="stroke-width:2; fill:black; stroke: black;" />
<line x1="247" y1="227" x2="195" y2="101" style="stroke-width:2; fill:black; stroke: black;" />
<line x1="261" y1="261" x2="225" y2="261" style="stroke-width:2; fill:black; stroke: black;" />
<line x1="261" y1="261" x2="283" y2="261" style="stroke-width:2; fill:black; stroke: black;" />
<line x1="261" y1="261" x2="277" y2="277" style="stroke-width:2; fill:black; stroke: black;" />
<line x1="261" y1="261" x2="261" y2="261" style="stroke-width:2; fill:black; stroke: black;" />
<path d="M261,334 A72,72 0 0 1 210,313" style="stroke-width:2; fill:none;stroke: black;" />
<path d="M52,261 A209,209 0 0 1 114,114" style="stroke-width:2; fill:none;stroke: black;" />
<path d="M261,52 A209,209 0 0 1 409,114" style="stroke-width:2; fill:none;stroke: black;" />
<path d="M102,195 A173,173 0 0 1 328,102" style="stroke-width:2; fill:none;stroke: black;" />
<path d="M248,295 A36,36 0 0 1 248,228" style="stroke-width:2; fill:none;stroke: black;" />
<path d="M261,261 A0,0 0 1 1 261,261" style="stroke-width:2; fill:none;stroke: black;" />
<g transform="translate(261,356)">
<g transform="rotate(90)">
<text x="1" y="0" style="font-family: sans-serif;font-size:8px;" >f</text>
</g>
</g>
<g transform="translate(194,328)">
<g transform="rotate(-45)">
<text x="-5" y="0" style="font-family: sans-serif;font-size:8px;" >e</text>
</g>
</g>
<g transform="translate(30,261)">
<g transform="rotate(0)">
<text x="-5" y="0" style="font-family: sans-serif;font-size:8px;" >d</text>
</g>
</g>
<g transform="translate(97,97)">
<g transform="rotate(45)">
<text x="-5" y="0" style="font-family: sans-serif;font-size:8px;" >c</text>
</g>
</g>
<g transform="translate(261,30)">
<g transform="rotate(270)">
<text x="1" y="0" style="font-family: sans-serif;font-size:8px;" >b</text>
</g>
</g>
<g transform="translate(425,97)">
<g transform="rotate(315)">
<text x="1" y="0" style="font-family: sans-serif;font-size:8px;" >a</text>
</g>
</g>
<g transform="translate(283,261)">
<g transform="rotate(360)">
<text x="1" y="0" style="font-family: sans-serif;font-size:8px;" >g</text>
</g>
</g>
<g transform="translate(277,277)">
<g transform="rotate(404.99999999999994)">
<text x="1" y="0" style="font-family: sans-serif;font-size:8px;" >h</text>
</g>
</g>
<circle cx="241" cy="312" r="5" style="stroke-width:1; fill:orange;stroke: black;" />
<circle cx="85" cy="188" r="5" style="stroke-width:1; fill:orange;stroke: black;" />
<circle cx="334" cy="85" r="5" style="stroke-width:1; fill:orange;stroke: black;" />
<circle cx="221" cy="165" r="5" style="stroke-width:1; fill:orange;stroke: black;" />
<circle cx="243" cy="261" r="5" style="stroke-width:1; fill:orange;stroke: black;" />
</svg>
