<?xml version="1.0"?>
<!-- Generated by SVGo -->
<svg width="460" height="460"
     xmlns="http://www.w3.org/2000/svg"
     xmlns:xlink="http://www.w3.org/1999/xlink">
<line x1="251" y1="348" x2="251" y2="359" style="stroke-width:2; fill:black; stroke: black;" />
<line x1="235" y1="346" x2="232" y2="356" style="stroke-width:2; fill:black; stroke: black;" />
<line x1="244" y1="343" x2="243" y2="348" style="stroke-width:2; fill:black; stroke: black;" />
<line x1="210" y1="351" x2="203" y2="359" style="stroke-width:2; fill:black; stroke: black;" />
<line x1="196" y1="334" x2="187" y2="340" style="stroke-width:2; fill:black; stroke: black;" />
<line x1="213" y1="334" x2="202" y2="344" style="stroke-width:2; fill:black; stroke: black;" />
<line x1="192" y1="313" x2="181" y2="315" style="stroke-width:2; fill:black; stroke: black;" />
<line x1="192" y1="292" x2="181" y2="291" style="stroke-width:2; fill:black; stroke: black;" />
<line x1="202" y1="303" x2="191" y2="303" style="stroke-width:2; fill:black; stroke: black;" />
<line x1="213" y1="317" x2="205" y2="320" style="stroke-width:2; fill:black; stroke: black;" />
<line x1="251" y1="303" x2="225" y2="334" style="stroke-width:2; fill:black; stroke: black;" />
<line x1="39" y1="180" x2="30" y2="175" style="stroke-width:2; fill:black; stroke: black;" />
<line x1="93" y1="115" x2="87" y2="107" style="stroke-width:2; fill:black; stroke: black;" />
<line x1="67" y1="148" x2="63" y2="145" style="stroke-width:2; fill:black; stroke: black;" />
<line x1="161" y1="56" x2="157" y2="46" style="stroke-width:2; fill:black; stroke: black;" />
<line x1="251" y1="40" x2="251" y2="30" style="stroke-width:2; fill:black; stroke: black;" />
<line x1="208" y1="58" x2="205" y2="44" style="stroke-width:2; fill:black; stroke: black;" />
<line x1="340" y1="59" x2="343" y2="49" style="stroke-width:2; fill:black; stroke: black;" />
<line x1="418" y1="104" x2="425" y2="96" style="stroke-width:2; fill:black; stroke: black;" />
<line x1="375" y1="88" x2="381" y2="78" style="stroke-width:2; fill:black; stroke: black;" />
<line x1="293" y1="66" x2="294" y2="58" style="stroke-width:2; fill:black; stroke: black;" />
<line x1="183" y1="115" x2="169" y2="77" style="stroke-width:2; fill:black; stroke: black;" />
<line x1="424" y1="203" x2="409" y2="212" style="stroke-width:2; fill:black; stroke: black;" />
<line x1="310" y1="142" x2="319" y2="115" style="stroke-width:2; fill:black; stroke: black;" />
<line x1="420" y1="273" x2="409" y2="275" style="stroke-width:2; fill:black; stroke: black;" />
<line x1="366" y1="206" x2="382" y2="193" style="stroke-width:2; fill:black; stroke: black;" />
<line x1="399" y1="329" x2="388" y2="327" style="stroke-width:2; fill:black; stroke: black;" />
<line x1="299" y1="290" x2="396" y2="264" style="stroke-width:2; fill:black; stroke: black;" />
<line x1="294" y1="328" x2="284" y2="322" style="stroke-width:2; fill:black; stroke: black;" />
<line x1="279" y1="306" x2="300" y2="309" style="stroke-width:2; fill:black; stroke: black;" />
<line x1="269" y1="324" x2="262" y2="316" style="stroke-width:2; fill:black; stroke: black;" />
<line x1="251" y1="303" x2="275" y2="316" style="stroke-width:2; fill:black; stroke: black;" />
<line x1="251" y1="303" x2="245" y2="286" style="stroke-width:2; fill:black; stroke: black;" />
<line x1="251" y1="303" x2="251" y2="303" style="stroke-width:2; fill:black; stroke: black;" />
<path d="M251,349 A46,46 0 0 1 236,346" style="stroke-width:2; fill:none;stroke: black;" />
<path d="M211,352 A63,63 0 0 1 197,335" style="stroke-width:2; fill:none;stroke: black;" />
<path d="M192,314 A60,60 0 0 1 192,293" style="stroke-width:2; fill:none;stroke: black;" />
<path d="M214,335 A49,49 0 0 1 203,303" style="stroke-width:2; fill:none;stroke: black;" />
<path d="M244,344 A41,41 0 0 1 213,317" style="stroke-width:2; fill:none;stroke: black;" />
<path d="M39,181 A245,245 0 0 1 94,116" style="stroke-width:2; fill:none;stroke: black;" />
<path d="M161,56 A263,263 0 0 1 251,40" style="stroke-width:2; fill:none;stroke: black;" />
<path d="M340,59 A260,260 0 0 1 418,104" style="stroke-width:2; fill:none;stroke: black;" />
<path d="M208,59 A248,248 0 0 1 376,88" style="stroke-width:2; fill:none;stroke: black;" />
<path d="M67,149 A240,240 0 0 1 293,67" style="stroke-width:2; fill:none;stroke: black;" />
<path d="M183,116 A200,200 0 0 1 424,204" style="stroke-width:2; fill:none;stroke: black;" />
<path d="M310,142 A172,172 0 0 1 420,274" style="stroke-width:2; fill:none;stroke: black;" />
<path d="M366,207 A150,150 0 0 1 399,329" style="stroke-width:2; fill:none;stroke: black;" />
<path d="M299,291 A49,49 0 0 1 294,328" style="stroke-width:2; fill:none;stroke: black;" />
<path d="M279,307 A28,28 0 0 1 269,325" style="stroke-width:2; fill:none;stroke: black;" />
<path d="M251,303 A0,0 0 1 1 251,303" style="stroke-width:2; fill:none;stroke: black;" />
<g transform="translate(251,359)">
<g transform="rotate(90)">
<text x="1" y="0" style="font-family: sans-serif;font-size:8px;" >q</text>
</g>
</g>
<g transform="translate(232,356)">
<g transform="rotate(-70)">
<text x="-5" y="0" style="font-family: sans-serif;font-size:8px;" >p</text>
</g>
</g>
<g transform="translate(203,359)">
<g transform="rotate(-50)">
<text x="-5" y="0" style="font-family: sans-serif;font-size:8px;" >n</text>
</g>
</g>
<g transform="translate(187,340)">
<g transform="rotate(-30.00000000000003)">
<text x="-5" y="0" style="font-family: sans-serif;font-size:8px;" >m</text>
</g>
</g>
<g transform="translate(181,315)">
<g transform="rotate(-10)">
<text x="-5" y="0" style="font-family: sans-serif;font-size:8px;" >k</text>
</g>
</g>
<g transform="translate(181,291)">
<g transform="rotate(10)">
<text x="-5" y="0" style="font-family: sans-serif;font-size:8px;" >j</text>
</g>
</g>
<g transform="translate(30,175)">
<g transform="rotate(29.99999999999997)">
<text x="-5" y="0" style="font-family: sans-serif;font-size:8px;" >h</text>
</g>
</g>
<g transform="translate(87,107)">
<g transform="rotate(49.99999999999997)">
<text x="-5" y="0" style="font-family: sans-serif;font-size:8px;" >g</text>
</g>
</g>
<g transform="translate(157,46)">
<g transform="rotate(70.00000000000003)">
<text x="-5" y="0" style="font-family: sans-serif;font-size:8px;" >b</text>
</g>
</g>
<g transform="translate(251,30)">
<g transform="rotate(270)">
<text x="1" y="0" style="font-family: sans-serif;font-size:8px;" >a</text>
</g>
</g>
<g transform="translate(343,49)">
<g transform="rotate(290)">
<text x="1" y="0" style="font-family: sans-serif;font-size:8px;" >e</text>
</g>
</g>
<g transform="translate(425,96)">
<g transform="rotate(309.99999999999994)">
<text x="1" y="0" style="font-family: sans-serif;font-size:8px;" >d</text>
</g>
</g>
<g transform="translate(409,212)">
<g transform="rotate(329.99999999999994)">
<text x="1" y="0" style="font-family: sans-serif;font-size:8px;" >i</text>
</g>
</g>
<g transform="translate(409,275)">
<g transform="rotate(350.00000000000006)">
<text x="1" y="0" style="font-family: sans-serif;font-size:8px;" >f</text>
</g>
</g>
<g transform="translate(388,327)">
<g transform="rotate(370)">
<text x="1" y="0" style="font-family: sans-serif;font-size:8px;" >c</text>
</g>
</g>
<g transform="translate(284,322)">
<g transform="rotate(390)">
<text x="1" y="0" style="font-family: sans-serif;font-size:8px;" >o</text>
</g>
</g>
<g transform="translate(262,316)">
<g transform="rotate(410)">
<text x="1" y="0" style="font-family: sans-serif;font-size:8px;" >l</text>
</g>
</g>
<g transform="translate(245,286)">
<g transform="rotate(430)">
<text x="1" y="0" style="font-family: sans-serif;font-size:8px;" >r</text>
</g>
</g>
<circle cx="315" cy="129" r="5" style="stroke-width:1; fill:orange;stroke: black;" />
<circle cx="375" cy="200" r="5" style="stroke-width:1; fill:orange;stroke: black;" />
<circle cx="348" cy="277" r="5" style="stroke-width:1; fill:orange;stroke: black;" />
<circle cx="290" cy="308" r="5" style="stroke-width:1; fill:orange;stroke: black;" />
</svg>
