<?xml version="1.0"?>
<!-- Generated by SVGo -->
<svg width="460" height="460"
     xmlns="http://www.w3.org/2000/svg"
     xmlns:xlink="http://www.w3.org/1999/xlink">
<line x1="268" y1="256" x2="268" y2="257" style="stroke-width:2; fill:black; stroke: black;" />
<line x1="100" y1="423" x2="99" y2="425" style="stroke-width:2; fill:black; stroke: black;" />
<line x1="31" y1="256" x2="30" y2="256" style="stroke-width:2; fill:black; stroke: black;" />
<line x1="62" y1="341" x2="49" y2="346" style="stroke-width:2; fill:black; stroke: black;" />
<line x1="109" y1="97" x2="108" y2="96" style="stroke-width:2; fill:black; stroke: black;" />
<line x1="268" y1="31" x2="268" y2="30" style="stroke-width:2; fill:black; stroke: black;" />
<line x1="182" y1="49" x2="182" y2="48" style="stroke-width:2; fill:black; stroke: black;" />
<line x1="268" y1="256" x2="62" y2="170" style="stroke-width:2; fill:black; stroke: black;" />
<line x1="279" y1="245" x2="280" y2="244" style="stroke-width:2; fill:black; stroke: black;" />
<line x1="283" y1="256" x2="284" y2="256" style="stroke-width:2; fill:black; stroke: black;" />
<line x1="268" y1="256" x2="282" y2="250" style="stroke-width:2; fill:black; stroke: black;" />
<line x1="268" y1="256" x2="268" y2="256" style="stroke-width:2; fill:black; stroke: black;" />
<line x1="268" y1="256" x2="269" y2="257" style="stroke-width:2; fill:black; stroke: black;" />
<line x1="268" y1="256" x2="268" y2="256" style="stroke-width:2; fill:black; stroke: black;" />
<path d="M101,424 A237,237 0 0 1 31,256" style="stroke-width:2; fill:none;stroke: black;" />
<path d="M109,97 A225,225 0 0 1 268,31" style="stroke-width:2; fill:none;stroke: black;" />
<path d="M62,342 A223,223 0 0 1 183,50" style="stroke-width:2; fill:none;stroke: black;" />
<path d="M279,245 A15,15 0 0 1 284,256" style="stroke-width:2; fill:none;stroke: black;" />
<path d="M268,256 A0,0 0 0 1 268,256" style="stroke-width:2; fill:none;stroke: black;" />
<path d="M268,256 A0,0 0 1 1 268,256" style="stroke-width:2; fill:none;stroke: black;" />
<g transform="translate(268,257)">
<g transform="rotate(90)">
<text x="1" y="0" style="font-family: sans-serif;font-size:8px;" >a</text>
</g>
</g>
<g transform="translate(99,425)">
<g transform="rotate(-45)">
<text x="-5" y="0" style="font-family: sans-serif;font-size:8px;" >h</text>
</g>
</g>
<g transform="translate(30,256)">
<g transform="rotate(0)">
<text x="-5" y="0" style="font-family: sans-serif;font-size:8px;" >g</text>
</g>
</g>
<g transform="translate(108,96)">
<g transform="rotate(45)">
<text x="-5" y="0" style="font-family: sans-serif;font-size:8px;" >f</text>
</g>
</g>
<g transform="translate(268,30)">
<g transform="rotate(270)">
<text x="1" y="0" style="font-family: sans-serif;font-size:8px;" >e</text>
</g>
</g>
<g transform="translate(280,244)">
<g transform="rotate(315)">
<text x="1" y="0" style="font-family: sans-serif;font-size:8px;" >c</text>
</g>
</g>
<g transform="translate(284,256)">
<g transform="rotate(360)">
<text x="1" y="0" style="font-family: sans-serif;font-size:8px;" >d</text>
</g>
</g>
<g transform="translate(269,257)">
<g transform="rotate(404.99999999999994)">
<text x="1" y="0" style="font-family: sans-serif;font-size:8px;" >b</text>
</g>
</g>
<circle cx="56" cy="344" r="5" style="stroke-width:1; fill:orange;stroke: black;" />
<circle cx="183" cy="49" r="5" style="stroke-width:1; fill:orange;stroke: black;" />
<circle cx="165" cy="213" r="5" style="stroke-width:1; fill:orange;stroke: black;" />
<circle cx="276" cy="253" r="5" style="stroke-width:1; fill:orange;stroke: black;" />
<circle cx="268" cy="256" r="5" style="stroke-width:1; fill:orange;stroke: black;" />
</svg>
