<?xml version="1.0"?>
<!-- Generated by SVGo -->
<svg width="460" height="460"
     xmlns="http://www.w3.org/2000/svg"
     xmlns:xlink="http://www.w3.org/1999/xlink">
<line x1="224" y1="396" x2="224" y2="425" style="stroke-width:2; fill:black; stroke: black;" />
<line x1="166" y1="386" x2="156" y2="413" style="stroke-width:2; fill:black; stroke: black;" />
<line x1="115" y1="357" x2="97" y2="378" style="stroke-width:2; fill:black; stroke: black;" />
<line x1="139" y1="374" x2="139" y2="374" style="stroke-width:2; fill:black; stroke: black;" />
<line x1="200" y1="318" x2="180" y2="391" style="stroke-width:2; fill:black; stroke: black;" />
<line x1="77" y1="312" x2="53" y2="326" style="stroke-width:2; fill:black; stroke: black;" />
<line x1="57" y1="256" x2="30" y2="261" style="stroke-width:2; fill:black; stroke: black;" />
<line x1="65" y1="285" x2="65" y2="285" style="stroke-width:2; fill:black; stroke: black;" />
<line x1="57" y1="198" x2="30" y2="193" style="stroke-width:2; fill:black; stroke: black;" />
<line x1="130" y1="235" x2="55" y2="242" style="stroke-width:2; fill:black; stroke: black;" />
<line x1="152" y1="288" x2="152" y2="288" style="stroke-width:2; fill:black; stroke: black;" />
<line x1="77" y1="142" x2="53" y2="128" style="stroke-width:2; fill:black; stroke: black;" />
<line x1="115" y1="97" x2="97" y2="76" style="stroke-width:2; fill:black; stroke: black;" />
<line x1="166" y1="68" x2="156" y2="41" style="stroke-width:2; fill:black; stroke: black;" />
<line x1="139" y1="80" x2="139" y2="80" style="stroke-width:2; fill:black; stroke: black;" />
<line x1="157" y1="160" x2="104" y2="107" style="stroke-width:2; fill:black; stroke: black;" />
<line x1="224" y1="227" x2="130" y2="223" style="stroke-width:2; fill:black; stroke: black;" />
<line x1="224" y1="58" x2="224" y2="30" style="stroke-width:2; fill:black; stroke: black;" />
<line x1="282" y1="68" x2="292" y2="41" style="stroke-width:2; fill:black; stroke: black;" />
<line x1="333" y1="97" x2="351" y2="76" style="stroke-width:2; fill:black; stroke: black;" />
<line x1="309" y1="80" x2="309" y2="80" style="stroke-width:2; fill:black; stroke: black;" />
<line x1="248" y1="136" x2="268" y2="63" style="stroke-width:2; fill:black; stroke: black;" />
<line x1="371" y1="142" x2="395" y2="128" style="stroke-width:2; fill:black; stroke: black;" />
<line x1="391" y1="198" x2="418" y2="193" style="stroke-width:2; fill:black; stroke: black;" />
<line x1="383" y1="169" x2="383" y2="169" style="stroke-width:2; fill:black; stroke: black;" />
<line x1="391" y1="256" x2="418" y2="261" style="stroke-width:2; fill:black; stroke: black;" />
<line x1="318" y1="219" x2="393" y2="212" style="stroke-width:2; fill:black; stroke: black;" />
<line x1="296" y1="166" x2="296" y2="166" style="stroke-width:2; fill:black; stroke: black;" />
<line x1="371" y1="312" x2="395" y2="326" style="stroke-width:2; fill:black; stroke: black;" />
<line x1="333" y1="357" x2="351" y2="378" style="stroke-width:2; fill:black; stroke: black;" />
<line x1="354" y1="336" x2="354" y2="336" style="stroke-width:2; fill:black; stroke: black;" />
<line x1="282" y1="386" x2="292" y2="413" style="stroke-width:2; fill:black; stroke: black;" />
<line x1="278" y1="304" x2="321" y2="366" style="stroke-width:2; fill:black; stroke: black;" />
<line x1="224" y1="227" x2="318" y2="239" style="stroke-width:2; fill:black; stroke: black;" />
<line x1="224" y1="227" x2="224" y2="227" style="stroke-width:2; fill:black; stroke: black;" />
<path d="M167,387 A169,169 0 0 1 116,357" style="stroke-width:2; fill:none;stroke: black;" />
<path d="M224,397 A169,169 0 0 1 140,374" style="stroke-width:2; fill:none;stroke: black;" />
<path d="M78,312 A169,169 0 0 1 58,257" style="stroke-width:2; fill:none;stroke: black;" />
<path d="M65,285 A169,169 0 0 1 58,198" style="stroke-width:2; fill:none;stroke: black;" />
<path d="M200,319 A94,94 0 0 1 130,236" style="stroke-width:2; fill:none;stroke: black;" />
<path d="M116,98 A169,169 0 0 1 167,68" style="stroke-width:2; fill:none;stroke: black;" />
<path d="M78,143 A169,169 0 0 1 140,81" style="stroke-width:2; fill:none;stroke: black;" />
<path d="M152,288 A94,94 0 0 1 158,161" style="stroke-width:2; fill:none;stroke: black;" />
<path d="M282,68 A169,169 0 0 1 333,98" style="stroke-width:2; fill:none;stroke: black;" />
<path d="M224,58 A169,169 0 0 1 309,81" style="stroke-width:2; fill:none;stroke: black;" />
<path d="M371,143 A169,169 0 0 1 391,198" style="stroke-width:2; fill:none;stroke: black;" />
<path d="M384,170 A169,169 0 0 1 391,257" style="stroke-width:2; fill:none;stroke: black;" />
<path d="M249,136 A94,94 0 0 1 319,219" style="stroke-width:2; fill:none;stroke: black;" />
<path d="M371,312 A169,169 0 0 1 333,357" style="stroke-width:2; fill:none;stroke: black;" />
<path d="M354,336 A169,169 0 0 1 282,387" style="stroke-width:2; fill:none;stroke: black;" />
<path d="M297,167 A94,94 0 0 1 279,305" style="stroke-width:2; fill:none;stroke: black;" />
<path d="M224,227 A0,0 0 1 1 224,227" style="stroke-width:2; fill:none;stroke: black;" />
<g transform="translate(224,425)">
<g transform="rotate(90)">
<text x="1" y="0" style="font-family: sans-serif;font-size:8px;" >g</text>
</g>
</g>
<g transform="translate(156,413)">
<g transform="rotate(-70)">
<text x="-5" y="0" style="font-family: sans-serif;font-size:8px;" >h</text>
</g>
</g>
<g transform="translate(97,378)">
<g transform="rotate(-50)">
<text x="-5" y="0" style="font-family: sans-serif;font-size:8px;" >i</text>
</g>
</g>
<g transform="translate(53,326)">
<g transform="rotate(-30.00000000000003)">
<text x="-5" y="0" style="font-family: sans-serif;font-size:8px;" >e</text>
</g>
</g>
<g transform="translate(30,261)">
<g transform="rotate(-10)">
<text x="-5" y="0" style="font-family: sans-serif;font-size:8px;" >f</text>
</g>
</g>
<g transform="translate(30,193)">
<g transform="rotate(10)">
<text x="-5" y="0" style="font-family: sans-serif;font-size:8px;" >d</text>
</g>
</g>
<g transform="translate(53,128)">
<g transform="rotate(29.99999999999997)">
<text x="-5" y="0" style="font-family: sans-serif;font-size:8px;" >a</text>
</g>
</g>
<g transform="translate(97,76)">
<g transform="rotate(49.99999999999997)">
<text x="-5" y="0" style="font-family: sans-serif;font-size:8px;" >c</text>
</g>
</g>
<g transform="translate(156,41)">
<g transform="rotate(70.00000000000003)">
<text x="-5" y="0" style="font-family: sans-serif;font-size:8px;" >b</text>
</g>
</g>
<g transform="translate(224,30)">
<g transform="rotate(270)">
<text x="1" y="0" style="font-family: sans-serif;font-size:8px;" >o</text>
</g>
</g>
<g transform="translate(292,41)">
<g transform="rotate(290)">
<text x="1" y="0" style="font-family: sans-serif;font-size:8px;" >n</text>
</g>
</g>
<g transform="translate(351,76)">
<g transform="rotate(309.99999999999994)">
<text x="1" y="0" style="font-family: sans-serif;font-size:8px;" >m</text>
</g>
</g>
<g transform="translate(395,128)">
<g transform="rotate(329.99999999999994)">
<text x="1" y="0" style="font-family: sans-serif;font-size:8px;" >q</text>
</g>
</g>
<g transform="translate(418,193)">
<g transform="rotate(350.00000000000006)">
<text x="1" y="0" style="font-family: sans-serif;font-size:8px;" >r</text>
</g>
</g>
<g transform="translate(418,261)">
<g transform="rotate(370)">
<text x="1" y="0" style="font-family: sans-serif;font-size:8px;" >p</text>
</g>
</g>
<g transform="translate(395,326)">
<g transform="rotate(390)">
<text x="1" y="0" style="font-family: sans-serif;font-size:8px;" >j</text>
</g>
</g>
<g transform="translate(351,378)">
<g transform="rotate(410)">
<text x="1" y="0" style="font-family: sans-serif;font-size:8px;" >k</text>
</g>
</g>
<g transform="translate(292,413)">
<g transform="rotate(430)">
<text x="1" y="0" style="font-family: sans-serif;font-size:8px;" >l</text>
</g>
</g>
<circle cx="190" cy="355" r="5" style="stroke-width:1; fill:orange;stroke: black;" />
<circle cx="93" cy="239" r="5" style="stroke-width:1; fill:orange;stroke: black;" />
<circle cx="131" cy="134" r="5" style="stroke-width:1; fill:orange;stroke: black;" />
<circle cx="177" cy="225" r="5" style="stroke-width:1; fill:orange;stroke: black;" />
<circle cx="259" cy="100" r="5" style="stroke-width:1; fill:orange;stroke: black;" />
<circle cx="356" cy="216" r="5" style="stroke-width:1; fill:orange;stroke: black;" />
<circle cx="300" cy="336" r="5" style="stroke-width:1; fill:orange;stroke: black;" />
<circle cx="271" cy="234" r="5" style="stroke-width:1; fill:orange;stroke: black;" />
</svg>
